<svg xmlns="http://www.w3.org/2000/svg" width="27" height="20" viewBox="0 0 27 20" fill="none">
  <g clip-path="url(#clip0_89_149)">
    <path d="M23.658 9.0185C23.658 9.76635 23.6681 10.5093 23.653 11.2571C23.643 11.6606 23.7584 12.0148 23.9692 12.3494C24.5112 13.2251 25.2289 13.9582 25.9566 14.6815C26.2276 14.9521 26.5086 15.2079 26.7947 15.4588C26.9352 15.5818 27.0004 15.7098 27.0004 15.9016C26.9904 16.7233 26.9904 17.54 26.9954 18.3617C27.0004 19.0456 26.6993 19.5572 26.072 19.8426C25.4296 20.1329 24.8274 20.0099 24.3004 19.5622C23.2114 18.6274 22.1274 17.6876 21.0434 16.7528C20.3056 16.1132 19.5729 15.4638 18.8201 14.8438C18.5541 14.6224 18.238 14.4601 17.9318 14.2928C17.4802 14.0468 16.9934 13.9139 16.4664 13.9336C16.085 13.9484 15.6935 13.9533 15.3121 13.9238C14.7551 13.8795 14.3586 13.5007 14.2833 12.9791C14.2131 12.5216 14.4891 12.0296 14.9508 11.8524C15.1264 11.7836 15.3222 11.754 15.5129 11.754C16.9582 11.7442 18.4036 11.7491 19.854 11.7491C20.396 11.7491 20.5917 11.5572 20.5917 11.021C20.5917 9.93855 20.5867 8.85614 20.5917 7.77373C20.5967 7.36044 20.4512 7.03572 20.135 6.75527C18.3133 5.15134 16.5015 3.53756 14.6848 1.92379C14.198 1.49082 14.1428 0.851216 14.5493 0.383811C14.9508 -0.0835936 15.6082 -0.127874 16.1251 0.26573C18.4488 2.03695 20.7673 3.80816 23.101 5.56954C23.4874 5.85983 23.6681 6.21407 23.6631 6.68147C23.653 7.45884 23.658 8.23621 23.658 9.0185Z" fill="white"/>
    <path d="M0.00527064 17.2054C0.00527064 16.7626 0.0102892 16.3198 0.000252056 15.877C-0.00476653 15.7048 0.0654937 15.5917 0.180921 15.4736C0.938728 14.711 1.6865 13.9385 2.42925 13.1612C2.58482 12.9988 2.70025 12.8069 2.83575 12.6298C3.19207 12.1526 3.35769 11.631 3.34263 11.0209C3.31252 9.61381 3.34765 8.20175 3.32758 6.7897C3.31754 6.23373 3.51828 5.84013 3.97497 5.49573C6.29356 3.76387 8.58705 2.00249 10.8906 0.246034C11.3724 -0.122969 12.0348 -0.0639287 12.4263 0.378876C12.8278 0.83152 12.7926 1.48097 12.3259 1.90409C11.6183 2.5437 10.9006 3.16854 10.188 3.80323C9.0588 4.802 7.92962 5.80569 6.80044 6.80446C6.53445 7.04062 6.40397 7.32598 6.40397 7.67039C6.40397 8.81676 6.39895 9.96313 6.40397 11.1144C6.40397 11.5375 6.62479 11.7442 7.0614 11.7442C8.55192 11.7491 10.0374 11.7442 11.5279 11.7491C12.2305 11.7491 12.7224 12.2313 12.7073 12.8807C12.6973 13.3776 12.3309 13.8254 11.824 13.8992C11.5229 13.9435 11.2068 13.9631 10.9006 13.9336C9.87181 13.8352 9.0036 14.2042 8.23575 14.8045C7.45285 15.4145 6.72014 16.0935 5.97237 16.738C4.8733 17.6827 3.77925 18.6372 2.67516 19.5769C1.78185 20.3395 0.461962 20.005 0.0805494 18.9176C0.0303636 18.7799 0.0153078 18.6273 0.0102892 18.4847C0.000252056 18.0615 0.00527064 17.6335 0.00527064 17.2054Z" fill="white"/>
    <path d="M14.2132 10.0369C14.2132 10.2731 14.2132 10.4945 14.2132 10.7356C13.7917 10.7356 13.3902 10.7356 12.9536 10.7356C12.9536 10.5437 12.9485 10.3567 12.9536 10.1698C12.9586 10.032 12.9184 9.97296 12.7729 9.93852C12.3563 9.84012 11.9699 9.67284 11.6086 9.38748C11.8394 9.08735 12.0602 8.80199 12.261 8.53631C12.6424 8.67899 12.9887 8.84627 13.355 8.92991C13.621 8.98895 13.9171 8.94959 14.1931 8.90531C14.4039 8.87087 14.5394 8.70851 14.5545 8.48711C14.5746 8.26078 14.4541 8.10334 14.2534 8.02462C13.9121 7.8967 13.5558 7.7983 13.2095 7.68514C12.9586 7.6015 12.6976 7.5277 12.4517 7.42438C11.8746 7.18329 11.5684 6.75525 11.5534 6.12548C11.5383 5.4662 11.7892 4.93483 12.3915 4.64947C12.7829 4.46251 13.1192 4.32474 12.9234 3.77862C13.35 3.77862 13.7214 3.7737 14.0978 3.78846C14.1379 3.78846 14.2082 3.91146 14.2082 3.98034C14.2333 4.39855 14.2333 4.38871 14.6298 4.52647C14.8606 4.60519 15.0814 4.71835 15.3324 4.83151C15.1216 5.15131 14.951 5.43176 14.7602 5.69744C14.7301 5.7368 14.6097 5.73188 14.5394 5.7122C14.2082 5.62856 13.887 5.52032 13.5558 5.45636C13.4253 5.43176 13.2747 5.47112 13.1392 5.50556C12.9385 5.55968 12.803 5.69252 12.7879 5.909C12.7729 6.12056 12.8682 6.28292 13.064 6.36165C13.3199 6.46497 13.5809 6.54369 13.8418 6.62733C14.1279 6.72081 14.424 6.78969 14.7 6.89301C15.498 7.19805 15.8192 7.68022 15.779 8.47235C15.7389 9.20051 15.2822 9.74172 14.5294 9.95328C14.4391 9.9828 14.3437 10.0074 14.2132 10.0369Z" fill="white"/>
  </g>
  <defs>
    <clipPath id="clip0_89_149">
      <rect width="27" height="20" fill="white"/>
    </clipPath>
  </defs>
</svg>